<svg width="36" height="40" viewBox="0 0 36 40" fill="none" xmlns="http://www.w3.org/2000/svg">
<path d="M26 30C26.8333 30 27.5417 29.7083 28.125 29.125C28.7083 28.5417 29 27.8333 29 27C29 26.1667 28.7083 25.4583 28.125 24.875C27.5417 24.2917 26.8333 24 26 24C25.1667 24 24.4583 24.2917 23.875 24.875C23.2917 25.4583 23 26.1667 23 27C23 27.8333 23.2917 28.5417 23.875 29.125C24.4583 29.7083 25.1667 30 26 30ZM26 36C27.0333 36 27.9833 35.7583 28.85 35.275C29.7167 34.7917 30.4167 34.15 30.95 33.35C30.2167 32.9167 29.4333 32.5833 28.6 32.35C27.7667 32.1167 26.9 32 26 32C25.1 32 24.2333 32.1167 23.4 32.35C22.5667 32.5833 21.7833 32.9167 21.05 33.35C21.5833 34.15 22.2833 34.7917 23.15 35.275C24.0167 35.7583 24.9667 36 26 36ZM16 40C11.3667 38.8333 7.54167 36.175 4.525 32.025C1.50833 27.875 0 23.2667 0 18.2V6L16 0L32 6V17.35C31.3667 17.0833 30.7167 16.8417 30.05 16.625C29.3833 16.4083 28.7 16.25 28 16.15V8.8L16 4.3L4 8.8V18.2C4 19.7667 4.20833 21.3333 4.625 22.9C5.04167 24.4667 5.625 25.9583 6.375 27.375C7.125 28.7917 8.03333 30.1 9.1 31.3C10.1667 32.5 11.35 33.5 12.65 34.3C13.0167 35.3667 13.5 36.3833 14.1 37.35C14.7 38.3167 15.3833 39.1833 16.15 39.95C16.1167 39.95 16.0917 39.9583 16.075 39.975C16.0583 39.9917 16.0333 40 16 40ZM26 40C23.2333 40 20.875 39.025 18.925 37.075C16.975 35.125 16 32.7667 16 30C16 27.2333 16.975 24.875 18.925 22.925C20.875 20.975 23.2333 20 26 20C28.7667 20 31.125 20.975 33.075 22.925C35.025 24.875 36 27.2333 36 30C36 32.7667 35.025 35.125 33.075 37.075C31.125 39.025 28.7667 40 26 40Z" fill="white"/>
</svg>
