<svg width="43" height="42" viewBox="0 0 43 42" fill="none" xmlns="http://www.w3.org/2000/svg">
<path d="M26.1 38H38.1V36.35C37.2667 35.5833 36.3333 35 35.3 34.6C34.2667 34.2 33.2 34 32.1 34C31 34 29.9333 34.2 28.9 34.6C27.8667 35 26.9333 35.5833 26.1 36.35V38ZM32.1 32C32.9333 32 33.6417 31.7083 34.225 31.125C34.8083 30.5417 35.1 29.8333 35.1 29C35.1 28.1667 34.8083 27.4583 34.225 26.875C33.6417 26.2917 32.9333 26 32.1 26C31.2667 26 30.5583 26.2917 29.975 26.875C29.3917 27.4583 29.1 28.1667 29.1 29C29.1 29.8333 29.3917 30.5417 29.975 31.125C30.5583 31.7083 31.2667 32 32.1 32ZM20.2 13C18.2667 13 16.6167 13.6833 15.25 15.05C13.8833 16.4167 13.2 18.0667 13.2 20C13.2 21.6 13.65 23 14.55 24.2C15.45 25.4 16.6333 26.2333 18.1 26.7C18.1 25.9333 18.1083 25.2 18.125 24.5C18.1417 23.8 18.2833 23.1667 18.55 22.6C18.0833 22.3333 17.7417 21.9667 17.525 21.5C17.3083 21.0333 17.2 20.5333 17.2 20C17.2 19.1667 17.4917 18.4583 18.075 17.875C18.6583 17.2917 19.3667 17 20.2 17C20.7 17 21.175 17.125 21.625 17.375C22.075 17.625 22.45 17.9667 22.75 18.4C23.1167 18.2333 23.5 18.1167 23.9 18.05C24.3 17.9833 24.7 17.95 25.1 17.95H26.9C26.4667 16.5167 25.6417 15.3333 24.425 14.4C23.2083 13.4667 21.8 13 20.2 13ZM14.6 40L13.8 33.6C13.3667 33.4333 12.9583 33.2333 12.575 33C12.1917 32.7667 11.8167 32.5167 11.45 32.25L5.5 34.75L0 25.25L5.15 21.35C5.11667 21.1167 5.1 20.8917 5.1 20.675C5.1 20.4583 5.1 20.2333 5.1 20C5.1 19.7667 5.1 19.5417 5.1 19.325C5.1 19.1083 5.11667 18.8833 5.15 18.65L0 14.75L5.5 5.25L11.45 7.75C11.8167 7.48333 12.2 7.23333 12.6 7C13 6.76667 13.4 6.56667 13.8 6.4L14.6 0H25.6L26.4 6.4C26.8333 6.56667 27.2417 6.76667 27.625 7C28.0083 7.23333 28.3833 7.48333 28.75 7.75L34.7 5.25L40.2 14.75L35.95 18H30.9C30.8667 17.8333 30.8333 17.6583 30.8 17.475C30.7667 17.2917 30.7167 17.1167 30.65 16.95L34.95 13.7L33 10.3L28.05 12.4C27.3167 11.6333 26.5083 10.9917 25.625 10.475C24.7417 9.95833 23.7833 9.56667 22.75 9.3L22.1 4H18.15L17.45 9.3C16.4167 9.56667 15.4583 9.95833 14.575 10.475C13.6917 10.9917 12.8833 11.6167 12.15 12.35L7.2 10.3L5.25 13.7L9.55 16.9C9.38333 17.4 9.26667 17.9 9.2 18.4C9.13333 18.9 9.1 19.4333 9.1 20C9.1 20.5333 9.13333 21.05 9.2 21.55C9.26667 22.05 9.38333 22.55 9.55 23.05L5.25 26.3L7.2 29.7L12.15 27.6C12.95 28.4333 13.85 29.1333 14.85 29.7C15.85 30.2667 16.9333 30.6333 18.1 30.8V40H14.6ZM25.1 42C24.2667 42 23.5583 41.7083 22.975 41.125C22.3917 40.5417 22.1 39.8333 22.1 39V25C22.1 24.1667 22.3917 23.4583 22.975 22.875C23.5583 22.2917 24.2667 22 25.1 22H39.1C39.9333 22 40.6417 22.2917 41.225 22.875C41.8083 23.4583 42.1 24.1667 42.1 25V39C42.1 39.8333 41.8083 40.5417 41.225 41.125C40.6417 41.7083 39.9333 42 39.1 42H25.1Z" fill="white"/>
</svg>
