<svg width="44" height="30" viewBox="0 0 44 30" fill="none" xmlns="http://www.w3.org/2000/svg">
<path d="M22 24C24.5 24 26.625 23.125 28.375 21.375C30.125 19.625 31 17.5 31 15C31 12.5 30.125 10.375 28.375 8.625C26.625 6.875 24.5 6 22 6C19.5 6 17.375 6.875 15.625 8.625C13.875 10.375 13 12.5 13 15C13 17.5 13.875 19.625 15.625 21.375C17.375 23.125 19.5 24 22 24ZM22 20.4C20.5 20.4 19.225 19.875 18.175 18.825C17.125 17.775 16.6 16.5 16.6 15C16.6 13.5 17.125 12.225 18.175 11.175C19.225 10.125 20.5 9.6 22 9.6C23.5 9.6 24.775 10.125 25.825 11.175C26.875 12.225 27.4 13.5 27.4 15C27.4 16.5 26.875 17.775 25.825 18.825C24.775 19.875 23.5 20.4 22 20.4ZM22 30C17.1333 30 12.7 28.6417 8.7 25.925C4.7 23.2083 1.8 19.5667 0 15C1.8 10.4333 4.7 6.79167 8.7 4.075C12.7 1.35833 17.1333 0 22 0C26.8667 0 31.3 1.35833 35.3 4.075C39.3 6.79167 42.2 10.4333 44 15C42.2 19.5667 39.3 23.2083 35.3 25.925C31.3 28.6417 26.8667 30 22 30ZM22 26C25.7667 26 29.225 25.0083 32.375 23.025C35.525 21.0417 37.9333 18.3667 39.6 15C37.9333 11.6333 35.525 8.95833 32.375 6.975C29.225 4.99167 25.7667 4 22 4C18.2333 4 14.775 4.99167 11.625 6.975C8.475 8.95833 6.06667 11.6333 4.4 15C6.06667 18.3667 8.475 21.0417 11.625 23.025C14.775 25.0083 18.2333 26 22 26Z" fill="white"/>
</svg>
